<?xml version="1.0" encoding="utf-8"?>
<!-- Generator: Adobe Illustrator 24.3.0, SVG Export Plug-In . SVG Version: 6.00 Build 0)  -->
<svg version="1.1" id="Capa_1" xmlns="http://www.w3.org/2000/svg" xmlns:xlink="http://www.w3.org/1999/xlink" x="0px" y="0px"
	 viewBox="0 0 62 62" style="enable-background:new 0 0 62 62;" xml:space="preserve">
<style type="text/css">
	.st0{fill:#2E72AA;}
</style>
<path class="st0" d="M60.3,52.6c-3.3-1.4-8.2-3.9-13.5-8c-5.6-4.5-8.8-8-10.5-10.3c2.8-0.8,6.8-2.6,11.9-6.4
	c9.9-7.4,9.1-20.4,9.1-21c-0.1-1.2-1-2.2-2.2-2.4c-1.2-0.1-2.3,0.6-2.7,1.7c0,0-0.7,1.8-3.6,3.6c-1.6,1.1-5.3,1.4-8.5,1.8
	c-3,0.3-5.9,0.6-7.9,1.5c-1.8,0.8-3.1,1.6-4,2.4c-1.3-1-3.2-2.3-5.1-3.3c-2.3-1.3-5.3-1.4-8.2-1.4c-2.1-0.1-4.3-0.1-5.9-0.7
	c-3-1-4.5-4.1-4.5-4.1C4.3,4.9,3.1,4.3,1.9,4.6C0.8,4.9-0.1,6,0,7.2c0,0.5,0.7,12.1,8.8,20.1c5.7,5.6,12.1,7.2,15.7,7.6
	c0,2.5,0.2,6.7,1.4,11.3c0.8,3.3,2.4,6.7,4.7,10.2c0.5,0.7,1.2,1.1,2.1,1.1h26.8c0,0,0,0,0,0c1.4,0,2.5-1.1,2.5-2.5
	C62,53.9,61.3,52.9,60.3,52.6z"/>
</svg>
